<svg xmlns="http://www.w3.org/2000/svg" xmlns:se="http://svg-edit.googlecode.com" xmlns:xlink="http://www.w3.org/1999/xlink" xmlns:dc="http://purl.org/dc/elements/1.1/" xmlns:cc="http://creativecommons.org/ns#" xmlns:rdf="http://www.w3.org/1999/02/22-rdf-syntax-ns#" xmlns:inkscape="http://www.inkscape.org/namespaces/inkscape" width="777" height="480" style="">                                    <title>my vector image</title>                                    <!-- Created with Vector Paint - http://www.vectorpaint.yaks.com/ https://chrome.google.com/webstore/detail/hnbpdiengicdefcjecjbnjnoifekhgdo -->                                    <rect id="backgroundrect" width="100%" height="100%" x="0" y="0" fill="#FFFFFF" stroke="none"/>                                <g class="currentLayer" style=""><title>Layer 1</title><path fill="#e98ae9" fill-opacity="1" stroke="#ffffff" stroke-opacity="1" stroke-width="2" stroke-dasharray="none" stroke-linejoin="round" stroke-linecap="butt" stroke-dashoffset="" fill-rule="nonzero" opacity="1" marker-start="" marker-mid="" marker-end="" d="M192.23076629638672,226.26922988891602 C192.23076629638672,130.68911939167845 279.04844585439776,53.269229888916016 386.2307662963867,53.269229888916016 C493.4130867383757,53.269229888916016 580.2307662963867,130.68911939167845 580.2307662963867,226.26922988891602 C580.2307662963867,321.8493403861536 493.4130867383757,399.269229888916 386.2307662963867,399.269229888916 C279.04844585439776,399.269229888916 192.23076629638672,321.8493403861536 192.23076629638672,226.26922988891602 z" id="svg_4" class=""/><path fill="#ffffff" stroke="#ffffff" stroke-width="2" stroke-linejoin="round" stroke-dashoffset="" fill-rule="nonzero" marker-start="" marker-mid="" marker-end="" id="svg_8" d="M289.2621556896484,195.92574136056913 L352.5001379718427,195.92574136056913 L352.5001379718427,132.68775267225496 L417.3703037224995,132.68775267225496 L417.3703037224995,195.92574136056913 L480.60829241080836,195.92574136056913 L480.60829241080836,260.79591351734064 L417.3703037224995,260.79591351734064 L417.3703037224995,324.03389579953733 L352.5001379718427,324.03389579953733 L352.5001379718427,260.79591351734064 L289.2621556896484,260.79591351734064 L289.2621556896484,195.92574136056913 z" style="color: rgb(0, 0, 0);" class=""/><path fill="#ffffff" stroke="#ffffff" stroke-width="2" stroke-linejoin="round" stroke-dashoffset="" fill-rule="nonzero" marker-start="" marker-mid="" marker-end="" id="svg_10" d="M385.5248863134047,233.74440640018207 L388.06712057852656,233.74440640018207 L388.06712057852656,231.2021718775274 L390.67497035810203,231.2021718775274 L390.67497035810203,233.74440640018207 L393.21720488075607,233.74440640018207 L393.21720488075607,236.35225643729035 L390.67497035810203,236.35225643729035 L390.67497035810203,238.89449070241176 L388.06712057852656,238.89449070241176 L388.06712057852656,236.35225643729035 L385.5248863134047,236.35225643729035 L385.5248863134047,233.74440640018207 z" style="color: rgb(0, 0, 0);"/><path fill="#ffffff" stroke="#ffffff" stroke-width="2" stroke-linejoin="round" stroke-dashoffset="" fill-rule="nonzero" marker-start="" marker-mid="" marker-end="" id="svg_12" d="M347.2749036428483,205.68483780888 L348.5460172546226,205.68483780888 L348.5460172546226,204.41372406833932 L349.8499385327522,204.41372406833932 L349.8499385327522,205.68483780888 L351.12105227329283,205.68483780888 L351.12105227329283,206.98875921577553 L349.8499385327522,206.98875921577553 L349.8499385327522,208.2598728275501 L348.5460172546226,208.2598728275501 L348.5460172546226,206.98875921577553 L347.2749036428483,206.98875921577553 L347.2749036428483,205.68483780888 z" style="color: rgb(0, 0, 0);"/><path fill="#ffffff" stroke="#ffffff" stroke-width="2" stroke-linejoin="round" stroke-dashoffset="" fill-rule="nonzero" marker-start="" marker-mid="" marker-end="" id="svg_14" d="M366.3229735626919,227.6692823569223 L373.31410842366137,227.6692823569223 L373.31410842366137,220.67814678773686 L380.4856857075885,220.67814678773686 L380.4856857075885,227.6692823569223 L387.4768212767738,227.6692823569223 L387.4768212767738,234.84086034906306 L380.4856857075885,234.84086034906306 L380.4856857075885,241.83199521003488 L373.31410842366137,241.83199521003488 L373.31410842366137,234.84086034906306 L366.3229735626919,234.84086034906306 L366.3229735626919,227.6692823569223 z" style="color: rgb(0, 0, 0);"/></g></svg>